# xmcd
#
# Track frame offsets: 
#        150
#        9697
#        21830
#        32935
#        43905
#        54137
#        63852
#        73972
#        86357
#        96697
#        107997
#        118605
#        128290
#        139542
#        149860
#        159432
#        169309
#        180215
#        190015
#        198222
#        207877
#        219262
#        232962
#        241960
#        251307
#        262447
#        274420
#        286975
#
# Disc length: 3965 seconds
#
# Revision: 0
# Processed by: cddbd v1.5.1PL0 Copyright (c) Steve Scherf et al.
# Submitted via: ExactAudioCopy v0.95a4
#
DISCID=9d0f7b1c
DTITLE=Various Artist - The 'D' Singles Volume 2 - Disc 3
DYEAR=1900
DGENRE=Country
TTITLE0=Willie Nelson: Man With The Blues
TTITLE1=Willie Nelson: The Storm Has Just Begun
TTITLE2=Cecil Bowman: Cotton
TTITLE3=Cecil Bowman: Curse Of Wine
TTITLE4=Gloria Henson: Don't Tell Me, Show Me
TTITLE5=Gloria Henson: Sad Girl
TTITLE6=Doug Bragg: When The Blues Comes Walking In
TTITLE7=Doug Bragg: Unfinished Castle
TTITLE8=Billy Jack Hale: Out Of Town Joe
TTITLE9=Billy Jack Hale: Danger Moved West
TTITLE10=Billy Jack Hale: Good Luck Billy
TTITLE11=Billy Jack Hale: I Take My Hat Off To The Blues
TTITLE12=Jimmy and Johnny: My Little Baby
TTITLE13=Jimmy and Johnny: All I Need Is Time
TTITLE14=Margie Words: Takes A Lot Of Heartaches
TTITLE15=Margie Word: I Shot Sam
TTITLE16=Charles Drake: There Goes My Baby
TTITLE17=Charles Drake: Having Fun With Another
TTITLE18=Bill Morgan: Your Wicked Love
TTITLE19=Bill Morgan: At Home With Mom
TTITLE20=Claude Gray: Loneliness
TTITLE21=Claude Gray: Best Part Of Me
TTITLE22=Eddie Noack: Man On The Wall
TTITLE23=Eddie Noack: Relief Is Just A Swallow Away
TTITLE24=Ted Doyle: One Step Ahead Of Sorrow
TTITLE25=Ted Doyle: Just One More Glass
TTITLE26=Danny Ross: The Last Town I Painted
TTITLE27=Danny Ross: You Finally Walked Out
EXTD=
EXTT0=
EXTT1=
EXTT2=
EXTT3=
EXTT4=
EXTT5=
EXTT6=
EXTT7=
EXTT8=
EXTT9=
EXTT10=
EXTT11=
EXTT12=
EXTT13=
EXTT14=
EXTT15=
EXTT16=
EXTT17=
EXTT18=
EXTT19=
EXTT20=
EXTT21=
EXTT22=
EXTT23=
EXTT24=
EXTT25=
EXTT26=
EXTT27=
PLAYORDER=
